<mxfile host="app.diagrams.net" agent="Mozilla/5.0 (Windows NT 10.0; Win64; x64) AppleWebKit/537.36 (KHTML, like Gecko) Chrome/133.0.0.0 Safari/537.36" version="26.0.14">
  <diagram name="Page-1" id="xw0azsXiT1ffzXBx3dtR">
    <mxGraphModel dx="880" dy="472" grid="1" gridSize="10" guides="1" tooltips="1" connect="1" arrows="1" fold="1" page="1" pageScale="1" pageWidth="827" pageHeight="1169" math="0" shadow="0">
      <root>
        <mxCell id="0" />
        <mxCell id="1" parent="0" />
        <mxCell id="bhfImXdg9pNfIHxLkrQA-6" value="" style="edgeStyle=orthogonalEdgeStyle;rounded=0;orthogonalLoop=1;jettySize=auto;html=1;" edge="1" parent="1" source="bhfImXdg9pNfIHxLkrQA-1" target="bhfImXdg9pNfIHxLkrQA-3">
          <mxGeometry relative="1" as="geometry" />
        </mxCell>
        <mxCell id="bhfImXdg9pNfIHxLkrQA-8" value="" style="edgeStyle=orthogonalEdgeStyle;rounded=0;orthogonalLoop=1;jettySize=auto;html=1;" edge="1" parent="1" source="bhfImXdg9pNfIHxLkrQA-1">
          <mxGeometry relative="1" as="geometry">
            <mxPoint x="660" y="100" as="targetPoint" />
          </mxGeometry>
        </mxCell>
        <mxCell id="bhfImXdg9pNfIHxLkrQA-1" value="ESP32" style="rounded=0;whiteSpace=wrap;html=1;fillColor=#000000;strokeColor=#3A5431;fontColor=#ffffff;fontStyle=7" vertex="1" parent="1">
          <mxGeometry x="350" y="70" width="180" height="60" as="geometry" />
        </mxCell>
        <mxCell id="bhfImXdg9pNfIHxLkrQA-3" value="CAMERA MODULE" style="rounded=0;whiteSpace=wrap;html=1;fillColor=#000000;fontStyle=5;fontFamily=Helvetica;textShadow=1;fontColor=#FFFFFF;" vertex="1" parent="1">
          <mxGeometry x="110" y="70" width="130" height="60" as="geometry" />
        </mxCell>
        <mxCell id="bhfImXdg9pNfIHxLkrQA-4" value="SERVO&amp;nbsp;&lt;div&gt;MOTOR&lt;/div&gt;" style="verticalLabelPosition=middle;shadow=0;dashed=0;align=center;html=1;verticalAlign=middle;strokeWidth=1;shape=ellipse;aspect=fixed;fontSize=12;" vertex="1" parent="1">
          <mxGeometry x="650" y="60" width="80" height="80" as="geometry" />
        </mxCell>
        <mxCell id="bhfImXdg9pNfIHxLkrQA-5" value="" style="verticalLabelPosition=bottom;shadow=0;dashed=0;align=center;fillColor=strokeColor;html=1;verticalAlign=top;strokeWidth=1;shape=mxgraph.electrical.miscellaneous.monocell_battery;" vertex="1" parent="1">
          <mxGeometry x="390" y="210" width="110" height="60" as="geometry" />
        </mxCell>
      </root>
    </mxGraphModel>
  </diagram>
</mxfile>
